# xmcd
#
# Track frame offsets:
#	150
#	23766
#	41336
#	55002
#	77921
#	96007
#	117337
#	130247
#	156312
#	180332
#	196551
#	218048
#	239106
#	263265
#
# Disc length: 3861 seconds
#
# Revision: 1
# Processed by: cddbd v1.5.2PL0 Copyright (c) Steve Scherf et al.
# Submitted via: audiograbber 1.83.01
#
DISCID=ad0f130e
DTITLE=Neil Young - Unplugged
DYEAR=1900
DGENRE=
TTITLE0=The Old Laughing Lady
TTITLE1=Mr. Soul
TTITLE2=World On A String
TTITLE3=Pocahontas
TTITLE4=Stringman
TTITLE5=Like A Hurricane
TTITLE6=The Needle And The Damage Done
TTITLE7=Helpless
TTITLE8=Harvest Moon
TTITLE9=Transformer Man
TTITLE10=Unknown Legend
TTITLE11=Look Out For My Love
TTITLE12=Long May You Run
TTITLE13=From Hank To Hendrix
EXTD=
EXTT0=
EXTT1=
EXTT2=
EXTT3=
EXTT4=
EXTT5=
EXTT6=
EXTT7=
EXTT8=
EXTT9=
EXTT10=
EXTT11=
EXTT12=
EXTT13=
PLAYORDER=
